<svg width="34" height="38" viewBox="0 0 34 38" fill="none" xmlns="http://www.w3.org/2000/svg">
<path fill-rule="evenodd" clip-rule="evenodd" d="M10.1998 8.11428H6.89985V6.28094H3.59976V11.7809H29.9998V6.28094H26.6998V8.11428H23.3998V6.28094H10.1998V8.11428ZM3.59976 33.7809V15.4476H29.9998V33.7809H3.59976ZM23.3998 2.61428H10.1998V0.780945H6.89985V2.61428H3.5998C1.77726 2.61428 0.299805 4.2559 0.299805 6.28094V33.7809C0.299805 35.806 1.77726 37.4476 3.5998 37.4476H29.9998C31.8223 37.4476 33.2998 35.806 33.2998 33.7809V6.28094C33.2998 4.2559 31.8223 2.61428 29.9998 2.61428H26.6998V0.780945H23.3998V2.61428ZM22.2331 17.8179L15.1498 25.6882L11.3665 21.4846L9.03309 24.0773L15.1498 30.8737L24.5665 20.4106L22.2331 17.8179Z" fill="white"/>
</svg>
