<svg width="40" height="40" viewBox="0 0 40 40" fill="none" xmlns="http://www.w3.org/2000/svg">
<path d="M34.3 6.66667H5.7C4.5799 6.66667 4.01984 6.66667 3.59202 6.88466C3.21569 7.07641 2.90973 7.38237 2.71799 7.75869C2.5 8.18651 2.5 8.74657 2.5 9.86667V9.95408C2.5 10.5802 2.5 10.8933 2.5863 11.1775C2.6627 11.4291 2.78796 11.6631 2.95491 11.8662C3.14349 12.0957 3.40398 12.2693 3.92496 12.6166L18.225 22.15L18.225 22.15C18.8665 22.5777 19.1872 22.7915 19.5339 22.8746C19.8403 22.948 20.1597 22.948 20.4661 22.8746C20.8128 22.7915 21.1335 22.5777 21.775 22.15L36.075 12.6166C36.596 12.2693 36.8565 12.0957 37.0451 11.8662C37.212 11.6631 37.3373 11.4291 37.4137 11.1775C37.5 10.8933 37.5 10.5802 37.5 9.95408V9.86667C37.5 8.74657 37.5 8.18651 37.282 7.75869C37.0903 7.38237 36.7843 7.07641 36.408 6.88466C35.9802 6.66667 35.4201 6.66667 34.3 6.66667Z" fill="white"/>
<path d="M5.7 33.3333H34.3C35.4201 33.3333 35.9802 33.3333 36.408 33.1154C36.7843 32.9236 37.0903 32.6176 37.282 32.2413C37.5 31.8135 37.5 31.2534 37.5 30.1333V14.1667L22.6626 24.0583L22.6625 24.0583C21.7003 24.6998 21.2192 25.0206 20.6991 25.1452C20.2395 25.2553 19.7605 25.2553 19.3009 25.1452C18.7808 25.0206 18.2997 24.6998 17.3374 24.0583L2.5 14.1667V30.1333C2.5 31.2534 2.5 31.8135 2.71799 32.2413C2.90973 32.6176 3.21569 32.9236 3.59202 33.1154C4.01984 33.3333 4.5799 33.3333 5.7 33.3333Z" fill="white"/>
</svg>
