<svg width="39" height="40" viewBox="0 0 39 40" fill="none" xmlns="http://www.w3.org/2000/svg">
<path d="M28.1011 1.6743L23.6575 1.66667C18.6653 1.66667 15.439 5.20849 15.439 10.6904V14.8509H10.9712C10.5851 14.8509 10.2725 15.1858 10.2725 15.599V21.6271C10.2725 22.0402 10.5855 22.3748 10.9712 22.3748H15.439V37.5857C15.439 37.9988 15.7517 38.3333 16.1378 38.3333H21.967C22.3531 38.3333 22.6658 37.9984 22.6658 37.5857V22.3748H27.8897C28.2758 22.3748 28.5884 22.0402 28.5884 21.6271L28.5906 15.599C28.5906 15.4006 28.5168 15.2106 28.386 15.0703C28.2551 14.9299 28.0769 14.8509 27.8915 14.8509H22.6658V11.324C22.6658 9.6288 23.0433 8.76823 25.107 8.76823L28.1004 8.76709C28.4861 8.76709 28.7988 8.43217 28.7988 8.01943V2.42195C28.7988 2.0096 28.4865 1.67506 28.1011 1.6743Z" fill="white"/>
</svg>
