<svg width="38" height="34" viewBox="0 0 38 34" fill="none" xmlns="http://www.w3.org/2000/svg">
<path fill-rule="evenodd" clip-rule="evenodd" d="M26.5881 0.447598C24.1753 0.447568 22.62 0.735011 20.8371 1.60769C20.177 1.93079 19.5577 2.31989 18.9826 2.77384C18.4297 2.34534 17.8351 1.9741 17.2024 1.66113C15.3849 0.762196 13.7498 0.447571 11.4236 0.447571C5.19341 0.447571 0.666016 5.60968 0.666016 12.314C0.666016 17.3772 3.48907 22.268 8.74741 26.9974C11.5075 29.4798 15.0316 31.9364 17.5554 33.2434L18.9993 33.9911L20.4433 33.2434C22.9671 31.9364 26.4912 29.4798 29.2513 26.9974C34.5096 22.268 37.3327 17.3772 37.3327 12.314C37.3327 5.68064 32.7626 0.473168 26.5881 0.447598ZM33.9993 12.314C33.9993 16.2807 31.643 20.3631 27.0222 24.519C24.503 26.7848 21.2643 29.0491 18.9993 30.2371C16.7344 29.0491 13.4957 26.7848 10.9765 24.519C6.35572 20.3631 3.99935 16.2807 3.99935 12.314C3.99935 7.36043 7.13875 3.7809 11.4236 3.7809C13.2732 3.7809 14.4129 4.00022 15.7246 4.64898C16.4994 5.03219 17.1841 5.53819 17.7769 6.17052L19.0032 7.47874L20.2184 6.16015C20.8245 5.50249 21.5194 4.98497 22.3026 4.60161C23.5758 3.97839 24.6444 3.7809 26.5812 3.78092C30.813 3.79846 33.9993 7.42918 33.9993 12.314Z" fill="white"/>
</svg>
