<svg width="62" height="62" viewBox="0 0 62 62" fill="none" xmlns="http://www.w3.org/2000/svg">
<path d="M30.9999 0C13.879 0 0 13.879 0 30.9999C0 48.1208 13.879 61.9999 30.9999 61.9999C48.1208 61.9999 62 48.1208 62 30.9999C61.9999 13.879 48.1206 0 30.9999 0ZM22.7291 45.987H15.9227V23.9976H22.7291V45.987ZM19.2935 21.1179C17.0706 21.1179 15.2686 19.3012 15.2686 17.0605C15.2686 14.8196 17.0709 13.003 19.2935 13.003C21.5161 13.003 23.3182 14.8196 23.3182 17.0605C23.3183 19.3013 21.5162 21.1179 19.2935 21.1179ZM48.2359 45.987H41.4625V34.4444C41.4625 31.2786 40.26 29.5114 37.7567 29.5114C35.0323 29.5114 33.6091 31.3519 33.6091 34.4444V45.987H27.081V23.9976H33.6091V26.9592C33.6091 26.9592 35.5727 23.3269 40.2354 23.3269C44.8981 23.3269 48.236 26.1739 48.236 32.0636L48.2359 45.987Z" fill="white" fill-opacity="0.8"/>
</svg>
