<?xml version="1.0" encoding="utf-8"?>
<!-- Generator: Adobe Illustrator 17.0.0, SVG Export Plug-In . SVG Version: 6.00 Build 0)  -->
<!DOCTYPE svg PUBLIC "-//W3C//DTD SVG 1.1//EN" "http://www.w3.org/Graphics/SVG/1.1/DTD/svg11.dtd">
<svg version="1.1" id="Warstwa_1" xmlns="http://www.w3.org/2000/svg" xmlns:xlink="http://www.w3.org/1999/xlink" x="0px" y="0px"
	 width="595.28px" height="841.89px" viewBox="0 0 595.28 841.89" enable-background="new 0 0 595.28 841.89" xml:space="preserve">
<path fill="#CDCCCC" stroke="#CDCCCC" stroke-width="18" stroke-miterlimit="22.9256" d="M145.311,418.163
	c17.671-18.074,38.934-32.697,62.46-43.269c21.942-9.86,45.786-16.171,70.458-18.464h0.014l1.465-0.134h0.016l1.468-0.122h0.016
	l1.469-0.115h0.016l1.473-0.102h0.016l1.471-0.095h0.018l1.473-0.083h0.019l1.474-0.074h0.018l1.476-0.064h0.018l1.477-0.055h0.019
	l1.479-0.044h0.019l1.478-0.034h0.02l1.479-0.027h0.022l1.48-0.015h0.023l1.482-0.004h0.02l1.482,0.004h0.021l1.482,0.015h0.021
	l1.48,0.027h0.019l1.477,0.034h0.021l1.477,0.044h0.019l1.478,0.055h0.019l1.475,0.064h0.018l1.474,0.074h0.019l1.473,0.083h0.018
	l1.471,0.095h0.016l1.471,0.102h0.016l1.469,0.115h0.018l1.467,0.122h0.016l1.465,0.134h0.015
	c24.675,2.289,48.517,8.608,70.457,18.464c23.527,10.572,44.789,25.195,62.46,43.269l-28.218,29.254
	c-14.997-16.964-33.639-30.456-54.444-39.804c-17.037-7.659-35.592-12.567-54.841-14.348h-0.015l-1.142-0.103h-0.016
	c-0.763-0.066-1.53-0.126-2.298-0.184h-0.018l-1.143-0.08h-0.018l-1.145-0.073h-0.018l-1.146-0.065h-0.018l-1.148-0.058h-0.016
	l-1.148-0.049h-0.019l-1.148-0.043h-0.019l-1.151-0.035h-0.019l-1.152-0.028h-0.018l-1.152-0.018h-0.019l-1.155-0.012h-0.018
	l-1.154-0.005h-0.02l-1.154,0.005h-0.019l-1.153,0.012h-0.021l-1.151,0.018h-0.019l-1.15,0.028h-0.019l-1.152,0.035h-0.019
	l-1.146,0.043h-0.019l-1.148,0.049h-0.018l-1.148,0.058h-0.018l-1.147,0.065h-0.018l-1.143,0.073h-0.018l-1.145,0.08h-0.016
	c-0.768,0.058-1.535,0.117-2.3,0.184h-0.016l-1.142,0.103h-0.015c-19.248,1.781-37.808,6.687-54.841,14.348
	c-20.803,9.349-39.447,22.84-54.444,39.804L145.311,418.163z M85.927,356.53c25.263-23.952,54.953-43.129,86.926-56.851
	c35.574-15.266,74.448-24.101,114.464-25.557l0.089-0.004l1.816-0.06l0.3-0.009l1.746-0.047l1.657-0.037l0.312-0.006l1.754-0.027
	l0.215-0.003l1.853-0.018h0.119l1.951-0.006h0.02l1.949,0.006h0.119l1.853,0.018l0.217,0.003l1.753,0.027l0.312,0.006l1.657,0.037
	l1.746,0.047l0.3,0.009l1.816,0.06l0.087,0.004c40.016,1.457,78.893,10.29,114.465,25.557
	c31.972,13.721,61.661,32.899,86.926,56.851l-27.909,28.954c-22.601-22.545-49.257-40.239-78.536-52.806
	c-27.756-11.91-57.971-19.175-89.211-21.161l-0.079-0.006l-0.787-0.049l-0.95-0.057l-0.282-0.015l-1.069-0.058l-0.389-0.021
	l-0.637-0.029l-1.105-0.051l-0.053-0.004l-1.249-0.052l-0.444-0.018l-0.482-0.018l-0.484-0.016l-1.088-0.036l-0.097-0.003
	l-1.342-0.037h-0.031l-1.294-0.03l-0.423-0.009l-0.252-0.005l-1.498-0.024l-0.178-0.002l-1.576-0.015l-0.098-0.002l-1.657-0.004
	h-0.02l-1.659,0.004l-0.098,0.002l-1.575,0.015l-0.177,0.002l-1.498,0.024l-0.252,0.005l-0.423,0.009l-1.296,0.03h-0.031
	l-1.34,0.037l-0.097,0.003l-1.088,0.036l-0.484,0.016l-0.484,0.018l-0.442,0.018l-1.249,0.052l-0.055,0.004l-1.105,0.051
	l-0.635,0.029l-0.389,0.021l-1.069,0.058l-0.282,0.015l-0.95,0.057l-0.788,0.049l-0.079,0.006
	c-31.239,1.984-61.454,9.254-89.211,21.161c-29.282,12.566-55.932,30.26-78.535,52.806L85.927,356.53z M362.378,512.14
	l29.223-30.314c-9.732-12.302-22.206-22.304-36.163-29.466c-13.74-7.062-29.079-11.533-45.113-12.963l-0.046-0.003l-0.879-0.074
	l-0.042-0.004l-0.885-0.07l-0.039-0.002l-0.891-0.064l-0.031-0.002l-0.9-0.057l-0.025-0.001l-0.906-0.051l-0.019-0.002l-0.913-0.045
	h-0.015l-0.919-0.037l-0.009-0.001l-0.927-0.03l-0.003-0.002l-0.931-0.022h-0.003l-0.931-0.018h-0.006l-0.925-0.012h-0.015
	l-0.919-0.003h-0.02l-0.919,0.003h-0.015l-0.927,0.012h-0.006l-0.93,0.018h-0.003l-0.932,0.022l-0.002,0.002l-0.928,0.03
	l-0.007,0.001l-0.921,0.037h-0.015l-0.913,0.045l-0.018,0.002l-0.907,0.051l-0.025,0.001l-0.898,0.057l-0.031,0.002l-0.892,0.064
	l-0.037,0.002l-0.885,0.07l-0.042,0.004l-0.879,0.074l-0.047,0.003c-16.033,1.43-31.373,5.908-45.113,12.963
	c-13.98,7.174-26.421,17.16-36.162,29.466l29.223,30.314C267.395,464.994,329.396,465.87,362.378,512.14z"/>
<path fill-rule="evenodd" clip-rule="evenodd" fill="#CDCCCC" d="M298.8,507.501c24.387,0,44.154,19.768,44.154,44.155
	c0,24.386-19.767,44.154-44.154,44.154c-24.387,0-44.154-19.768-44.154-44.154C254.647,527.27,274.413,507.501,298.8,507.501"/>
<circle fill="none" stroke="#072734" stroke-width="3" stroke-miterlimit="22.9256" cx="298.8" cy="551.656" r="35.114"/>
<polygon fill="none" stroke="#072734" stroke-width="3" stroke-miterlimit="22.9256" points="279.661,537.526 317.938,537.526
	318.593,537.526 318.593,561.92 313.755,561.92 313.635,567.586 303.264,567.586 302.632,567.586 302.385,555.443 303.027,555.443
	312.851,555.443 312.851,544.051 284.658,544.051 284.658,555.443 294.574,555.443 295.217,555.443 294.967,567.586
	294.338,567.586 283.966,567.586 283.843,561.92 279.009,561.92 279.009,537.526 "/>
<path fill="none" stroke="#CDCCCC" stroke-width="12" stroke-miterlimit="22.9256" d="M298.797,548.298v38.473
	c0,60.032,246.641,75.001,278.772-145.098c0.764-8.529,1.146-16.994,1.146-25.464c0-155.233-125.841-281.076-281.076-281.076
	c-155.234,0-281.076,125.842-281.076,281.076c0,133.948,94.52,249.285,225.858,275.599c17.323,3.22,40.059,4.519,57.682,4.519"/>
<path fill-rule="evenodd" clip-rule="evenodd" fill="#072734" d="M331.262,699.487l0.233,1.761c0.078,0.62-0.376,1.19-0.996,1.262
	l-26.093,3.064c-0.622,0.073-1.188-0.374-1.262-0.996l-3.286-27.974c-0.073-0.622,0.376-1.19,0.996-1.262l26.093-3.064
	c0.62-0.073,1.164,0.298,1.237,0.92l0.202,1.796l2.763-0.316c0.065-0.008,0.125,0.039,0.134,0.106l2.852,24.285
	c0.008,0.067-0.041,0.127-0.106,0.133L331.262,699.487z"/>
<path fill="none" stroke="#CDCCCC" stroke-width="2" stroke-miterlimit="22.9256" d="M331.262,699.487l0.233,1.761
	c0.078,0.62-0.376,1.19-0.996,1.262l-26.093,3.064c-0.622,0.073-1.188-0.374-1.262-0.996l-3.286-27.974
	c-0.073-0.622,0.376-1.19,0.996-1.262l26.093-3.064c0.62-0.073,1.164,0.298,1.237,0.92l0.202,1.796l2.763-0.316
	c0.065-0.008,0.125,0.039,0.134,0.106l2.852,24.285c0.008,0.067-0.041,0.127-0.106,0.133L331.262,699.487z"/>
<line fill="none" stroke="#CDCCCC" stroke-width="2" stroke-miterlimit="22.9256" x1="317.257" y1="679.409" x2="300.46" y2="681.382"/>
<line fill="none" stroke="#CDCCCC" stroke-width="2" stroke-miterlimit="22.9256" x1="317.664" y1="682.888" x2="300.869" y2="684.86"/>
<path fill="none" stroke="#CDCCCC" stroke-width="2" stroke-miterlimit="22.9256" d="M327.708,681.479l0.117,0.83
	c0.019,0.129-0.093,0.246-0.249,0.261l-7.024,0.682c-0.156,0.016-0.298-0.077-0.316-0.205l-0.117-0.83
	c-0.018-0.129,0.093-0.246,0.249-0.261l7.024-0.682C327.548,681.257,327.69,681.35,327.708,681.479z"/>
<line fill="none" stroke="#CDCCCC" stroke-width="2" stroke-miterlimit="22.9256" x1="318.082" y1="686.443" x2="301.286" y2="688.416"/>
<path fill="none" stroke="#CDCCCC" stroke-width="2" stroke-miterlimit="22.9256" d="M328.125,685.042l0.119,0.829
	c0.018,0.129-0.094,0.246-0.249,0.262l-7.026,0.682c-0.155,0.015-0.296-0.078-0.314-0.207l-0.119-0.83
	c-0.018-0.129,0.094-0.246,0.249-0.26l7.026-0.682C327.965,684.82,328.107,684.913,328.125,685.042z"/>
<line fill="none" stroke="#CDCCCC" stroke-width="2" stroke-miterlimit="22.9256" x1="318.499" y1="689.999" x2="301.704" y2="691.972"/>
<path fill="none" stroke="#CDCCCC" stroke-width="2" stroke-miterlimit="22.9256" d="M328.543,688.592l0.117,0.83
	c0.018,0.129-0.093,0.246-0.249,0.26l-7.024,0.682c-0.156,0.015-0.298-0.077-0.316-0.205l-0.117-0.83
	c-0.018-0.129,0.093-0.246,0.249-0.26l7.024-0.682C328.384,688.371,328.525,688.464,328.543,688.592z"/>
<line fill="none" stroke="#CDCCCC" stroke-width="2" stroke-miterlimit="22.9256" x1="318.917" y1="693.787" x2="302.121" y2="695.758"/>
<line fill="none" stroke="#CDCCCC" stroke-width="2" stroke-miterlimit="22.9256" x1="319.334" y1="697.111" x2="302.539" y2="699.084"/>
<polygon fill-rule="evenodd" clip-rule="evenodd" fill="#072734" points="297.77,675.258 267.048,686.249 267.42,692.624
	267.872,696.621 268.934,702.917 301.336,706.756 "/>
<polygon fill="none" stroke="#CDCCCC" stroke-width="3" stroke-linejoin="round" stroke-miterlimit="22.9256" points="
	297.77,675.258 267.048,686.249 267.42,692.624 267.872,696.621 268.934,702.917 301.336,706.756 "/>
<polyline fill="none" stroke="#CDCCCC" stroke-width="3" stroke-miterlimit="22.9256" points="289.844,677.466 290.559,689.739
	287.881,690.042 287.23,678.496 "/>
<polyline fill="none" stroke="#CDCCCC" stroke-width="3" stroke-miterlimit="22.9256" points="283.583,680.29 284.177,690.486 
	281.499,690.787 280.961,681.259 "/>
<polyline fill="none" stroke="#CDCCCC" stroke-width="3" stroke-miterlimit="22.9256" points="271.002,684.938 271.414,691.978 
	268.736,692.281 268.376,685.908 "/>
<polyline fill="none" stroke="#CDCCCC" stroke-width="3" stroke-miterlimit="22.9256" points="292.957,705.832 290.997,693.704
	288.324,694.028 290.185,705.432 "/>
<polyline fill="none" stroke="#CDCCCC" stroke-width="3" stroke-miterlimit="22.9256" points="286.243,704.525 284.616,694.449
	281.941,694.775 283.477,704.186 "/>
<polyline fill="none" stroke="#CDCCCC" stroke-width="3" stroke-miterlimit="22.9256" points="279.609,703.714 278.234,695.197 
	275.559,695.521 276.842,703.374 "/>
<polyline fill="none" stroke="#CDCCCC" stroke-width="3" stroke-miterlimit="22.9256" points="272.975,702.902 271.852,695.944 
	269.177,696.268 270.206,702.563 "/>
<path fill="none" stroke="#CDCCCC" stroke-width="2" stroke-miterlimit="22.9256" d="M327.276,677.923l0.117,0.83
	c0.018,0.129-0.093,0.246-0.249,0.26l-7.024,0.682c-0.156,0.016-0.298-0.077-0.316-0.205l-0.117-0.83
	c-0.02-0.129,0.093-0.246,0.249-0.261l7.024-0.682C327.117,677.702,327.258,677.794,327.276,677.923z"/>
<path fill="none" stroke="#CDCCCC" stroke-width="2" stroke-miterlimit="22.9256" d="M329.401,695.691l0.117,0.83
	c0.018,0.129-0.093,0.246-0.249,0.26l-7.024,0.684c-0.156,0.015-0.298-0.078-0.316-0.207l-0.117-0.83
	c-0.02-0.129,0.093-0.246,0.249-0.26l7.024-0.682C329.24,695.469,329.383,695.562,329.401,695.691z"/>
<polyline fill="none" stroke="#CDCCCC" stroke-width="3" stroke-miterlimit="22.9256" points="296.208,676.761 296.921,689.036
	294.245,689.337 293.592,677.791 "/>
<polyline fill="none" stroke="#CDCCCC" stroke-width="3" stroke-miterlimit="22.9256" points="277.294,683.451 277.706,691.192
	275.028,691.495 274.668,684.421 "/>
<path fill="none" stroke="#CDCCCC" stroke-width="2" stroke-miterlimit="22.9256" d="M328.787,692.192l0.119,0.83
	c0.018,0.129-0.094,0.246-0.249,0.26l-7.026,0.682c-0.155,0.016-0.296-0.076-0.314-0.205l-0.119-0.83
	c-0.018-0.129,0.094-0.246,0.249-0.26l7.026-0.682C328.628,691.971,328.769,692.063,328.787,692.192z"/>
<polyline fill="none" stroke="#CDCCCC" stroke-width="3" stroke-miterlimit="22.9256" points="299.238,706.232 297.278,692.93
	294.605,693.285 296.465,705.793 "/>
</svg>
