<svg width="39" height="30" viewBox="0 0 39 30" fill="none" xmlns="http://www.w3.org/2000/svg">
<path d="M38.5714 3.54947C37.1518 4.1518 35.6285 4.5603 34.0281 4.74267C35.6623 3.80565 36.9132 2.3194 37.5061 0.553871C35.9732 1.42161 34.2811 2.0517 32.4782 2.39327C31.0345 0.918553 28.9809 0 26.7032 0C22.3334 0 18.7903 3.39257 18.7903 7.57442C18.7903 8.16752 18.8602 8.7468 18.9952 9.30073C12.42 8.98451 6.58961 5.96815 2.6874 1.38468C2.00528 2.50171 1.61723 3.80329 1.61723 5.19268C1.61723 7.82137 3.01519 10.1408 5.13625 11.4978C3.8395 11.4562 2.6199 11.1147 1.55219 10.5469V10.6415C1.55219 14.311 4.28062 17.3736 7.8984 18.0706C7.23556 18.2414 6.53661 18.336 5.81352 18.336C5.30257 18.336 4.80845 18.2875 4.32398 18.1952C5.33144 21.207 8.25272 23.3971 11.7139 23.4572C9.00714 25.4881 5.59419 26.6951 1.88723 26.6951C1.24853 26.6951 0.619413 26.6582 0 26.5913C3.50213 28.7445 7.65984 30 12.1285 30C26.684 30 34.6404 18.456 34.6404 8.44452L34.6138 7.46369C36.1684 6.40199 37.5133 5.06806 38.5714 3.54947Z" fill="white"/>
</svg>
